<svg id="레이어_1" data-name="레이어 1" xmlns="http://www.w3.org/2000/svg" viewBox="0 0 200 200"><defs><style>.cls-1{fill:#fefefe;}.cls-2{fill:#4a59b1;}.cls-3{fill:#fff;}</style></defs><circle class="cls-1" cx="100" cy="100" r="141.42"/><path d="M170.48,99.27c0,10.63-.07,21.26,0,31.9.05,4.9-2.4,8.22-6.31,10.55-3.06,1.83-6.25,3.46-9.37,5.19q-23.13,12.81-46.25,25.65a18.22,18.22,0,0,1-9.17,2.17,19.19,19.19,0,0,1-4.06-.44,14.82,14.82,0,0,1-4.25-1.62Q63.74,157,36.36,141.43a13.81,13.81,0,0,1-5.09-4.57,7.53,7.53,0,0,1-1.1-2.88,35.41,35.41,0,0,1-.44-5.63q.19-30.24.34-60.48c0-.88,0-1.75,0-2.63a8.25,8.25,0,0,1,1.82-5,22,22,0,0,1,6.84-5.71q26.67-15,53.37-29.89c.79-.45,1.6-.86,2.37-1.35a8.48,8.48,0,0,1,5.72-1.09,24.41,24.41,0,0,1,9.26,3.1L148.38,47.1l15.21,8.53a26.57,26.57,0,0,1,3,2.11,9.71,9.71,0,0,1,3.51,6.62,22.88,22.88,0,0,1,.2,3.79q0,15.55,0,31.12Z"/><path class="cls-2" d="M169,99.69c0,10.57-.07,21.14,0,31.7a10,10,0,0,1-3.42,7.55,16.35,16.35,0,0,1-3.92,2.51L127,160.69q-9.86,5.46-19.69,10.93A13.49,13.49,0,0,1,102,173.2a19.11,19.11,0,0,1-7.81-.69,13.84,13.84,0,0,1-2.48-1.12l-17.52-10-27.93-16q-5-2.88-10.06-5.78a10.45,10.45,0,0,1-3.43-3.12,6.76,6.76,0,0,1-1.21-2.94,32.08,32.08,0,0,1-.36-4.27c0-10,0-20.09.13-30.14.12-10.4.08-20.8.14-31.21,0-1.14,0-2.27.15-3.4A6.4,6.4,0,0,1,33,61.17a19.42,19.42,0,0,1,5.13-4.6c2.67-1.68,5.46-3.14,8.21-4.68L81.24,32.3l14.54-8.14a6.23,6.23,0,0,1,3.59-.69,21.07,21.07,0,0,1,8.7,2.62Q124,35,140,44l22.78,12.79A23.15,23.15,0,0,1,166,59.05a7.5,7.5,0,0,1,2.52,4.39,17.44,17.44,0,0,1,.43,3.67q0,16.29,0,32.58Z"/><path d="M99.44,46.3a52.34,52.34,0,0,1,33.15,11.82A51.07,51.07,0,0,1,143.94,71c.7,1.13.56,1.74-.56,2.39L123.1,85.28c-1.3.77-1.29.76-2.11-.5a24,24,0,0,0-34.86-6.29A25.13,25.13,0,0,0,76,95c-1.48,9,1,16.89,7.67,23.22a22.77,22.77,0,0,0,13.24,6.07,25,25,0,0,0,24.34-12.45c.56-1,.84-1,1.79-.5l15,8.6,6.08,3.49c1.11.64,1.17.83.53,1.9A52.33,52.33,0,0,1,107,150.6,48.7,48.7,0,0,1,96,151a52.39,52.39,0,0,1-47.73-42.91,48.83,48.83,0,0,1-.78-12.13A52.1,52.1,0,0,1,59.22,65.54,51.39,51.39,0,0,1,84,48.73a49.29,49.29,0,0,1,13.58-2.34C98.31,46.38,99,46.32,99.44,46.3Z"/><path class="cls-3" d="M122.47,112.75a1.9,1.9,0,0,1,.78.38l19.27,11.06a5,5,0,0,0,.5.29c.27.14.29.32.14.56s-.26.44-.4.66c-7.65,12-18.34,19.73-32.22,22.78a51,51,0,1,1,32.07-76.93c.08.13.16.28.23.41-.09.32-.37.37-.58.49L123,83.71c-.14.09-.29.15-.42.25s-.4.07-.54-.15c-.33-.49-.65-1-1-1.44a24.32,24.32,0,0,0-16.71-9.93c-9.83-1.25-17.9,2.25-24.1,9.87a26.07,26.07,0,0,0-6,18.78c.74,10.36,5.66,18.14,15.17,22.59,9.33,4.36,20.41,2.31,28.14-4.91a28.37,28.37,0,0,0,4.36-5.23A2.58,2.58,0,0,1,122.47,112.75Z"/></svg>