<svg id="레이어_1" data-name="레이어 1" xmlns="http://www.w3.org/2000/svg" viewBox="0 0 200 200"><defs><style>.cls-1{fill:#fefefe;}.cls-2{fill:#204987;}.cls-3{fill:#fcfcfc;}.cls-4{fill:#b9c5d9;}.cls-5{fill:#e92d2e;}.cls-6{fill:#cf2f31;}.cls-7{fill:#b53134;}.cls-8{fill:#9eb0cb;}.cls-9{fill:#a03a3f;}.cls-10{fill:#5574a3;}</style></defs><path class="cls-1" d="M99.93,200H.64c-.52,0-.64-.12-.64-.64Q0,100,0,.64C0,.12.12,0,.64,0H199.36c.52,0,.64.12.64.64q0,99.36,0,198.72c0,.52-.12.64-.64.64Z"/><path class="cls-2" d="M42.06,153.06l.26-.26c2-1.89,4.49-2.85,7-3.83a75.45,75.45,0,0,1,7.49-2.33c1.45-.4,2.6.06,3,1.22a2.09,2.09,0,0,1-.75,2.28,4.72,4.72,0,0,1-1.56.6c-2,.5-3.92,1-5.82,1.68a26.81,26.81,0,0,0-5.79,2.71,5.37,5.37,0,0,0-.84.73c-.61.62-.6.93.08,1.47a8.35,8.35,0,0,0,2.06,1.15,56.19,56.19,0,0,0,13.54,3.06c3.46.45,6.92.69,10.39.94,1.81.12,3.62.16,5.43.22,4,.14,7.91.09,11.86.06,3.37,0,6.73-.2,10.09-.39q7.55-.42,15-1.27a170.83,170.83,0,0,0,19.35-3.21,90.65,90.65,0,0,0,10.46-3.17,1.89,1.89,0,0,1,2.18.47,1.85,1.85,0,0,1,.4,2.07,2.56,2.56,0,0,1-1.32,1.27,43.47,43.47,0,0,1-6.25,2.14,118.34,118.34,0,0,1-14.28,3.1c-4.4.74-8.82,1.29-13.25,1.73-2.44.25-4.89.46-7.34.66-2.11.17-4.21.29-6.32.37l-6.48.24c-2.83.11-5.67.13-8.5.12-4.76,0-9.52-.19-14.27-.55-4.19-.31-8.36-.77-12.5-1.47a47.33,47.33,0,0,1-9.66-2.58A13.5,13.5,0,0,1,43.35,161a6.74,6.74,0,0,1-2.84-3.49,5.91,5.91,0,0,1,0-1.68A5.57,5.57,0,0,1,42.06,153.06Z"/><path d="M98,48.33l.44-.41c.31-.2.53-.5.83-.71l.29-.27a33.43,33.43,0,0,0,2.67-2.52l.54-.58c.18-.23.41-.43.57-.68l.13-.14c.17-.25.4-.45.58-.7l.26-.29.44-.54.68-.84a3.84,3.84,0,0,1,.44-.54h0c.07-.24.28-.37.39-.59l.28-.41c.12-.2.3-.35.41-.56l.29-.44c.21-.18.22-.5.46-.66h0c0-.24.26-.31.41-.44h0c.14-.24.25-.49.4-.72l.15-.27c.17-.22.25-.49.42-.71l.14-.27c.23-.3.33-.67.55-1l.7-1.41c.16-.32.27-.65.45-1v0c.08-.25.16-.49.26-.73l.7-2.27c.18-.19,0-.47.16-.65h0c.14-.22,0-.5.13-.71h0c.16-.27,0-.59.13-.85v-.21c.14-.34,0-.71.12-1.05a2,2,0,0,0,0-.9,3.35,3.35,0,0,0,0-1.41,1.4,1.4,0,0,0,0-.76c-.15-.33,0-.7-.12-1l0-.23c-.13-.25,0-.53-.12-.78V20c-.15-.23,0-.51-.12-.75l0-.05,0,0c-.16-.23,0-.52-.12-.75a4.52,4.52,0,0,1-.28-1.35c-.2-.19,0-.47-.16-.67s-.1-.39-.13-.59,0-.49-.14-.71h0c-.09-.48-.24-1,.19-1.37a1.21,1.21,0,0,1,1.84.19,15.63,15.63,0,0,1,3.27,4.87,34.09,34.09,0,0,1,3.15,11.84c.26,3.86-.95,7.37-2.63,10.76l-.54,1c-.14.25-.2.55-.45.73a8.3,8.3,0,0,0-1.08,1.66.82.82,0,0,1-.45.43,5.55,5.55,0,0,0-1,1.36,1.4,1.4,0,0,1-.45.6,2.66,2.66,0,0,0-.66.83,1.61,1.61,0,0,1-.48.56l-.22.27a21.32,21.32,0,0,1-2.81,2.81,1.65,1.65,0,0,0-.55.5,5.58,5.58,0,0,1-1,.76.94.94,0,0,0-.42.37,1.7,1.7,0,0,1-.56.47l-.28.23a1.6,1.6,0,0,1-.56.47l-.13.1a1.78,1.78,0,0,1-.57.45l-.13.1a1.59,1.59,0,0,1-.57.46l-.13.1a1.51,1.51,0,0,1-.57.46l-.13.09a1.44,1.44,0,0,1-.57.47,1.45,1.45,0,0,0-.68.52,1.4,1.4,0,0,1-.58.44h0c-.12.22-.37.21-.56.31A7,7,0,0,0,99.43,59a1.34,1.34,0,0,1-.61.44c-.19,0-.28.12-.37.26a1.82,1.82,0,0,1-.58.45,6.37,6.37,0,0,0-1.52,1.22,1.92,1.92,0,0,1-.56.46.41.41,0,0,0-.28.23,1.68,1.68,0,0,1-.56.47l-.13.1a1.72,1.72,0,0,1-.71.45l-.13.1a1.47,1.47,0,0,1-.57.45h0a1.86,1.86,0,0,1-.57.44l-.13.1a1.77,1.77,0,0,1-.56.46l-.28.22a2.48,2.48,0,0,1-.71.62,1,1,0,0,0-.41.36c-.65.68-1.32,1.34-2,2a.89.89,0,0,0-.37.42,1.61,1.61,0,0,1-.48.56l-.08.12c-.17.22-.41.37-.6.58a2.6,2.6,0,0,0-.67,1.07,1.88,1.88,0,0,1-.43.75,1.69,1.69,0,0,0-.39.82c-.13.23-.11.52-.32.7h0a1.51,1.51,0,0,1-.28.72,2,2,0,0,0-.25,1c-.17.2.06.51-.17.7v0c-.12.23.06.51-.13.72h0c-.16.36.07.78-.14,1.14l0,0,0,0a18.3,18.3,0,0,0,0,3.31h0c.21.31,0,.68.14,1h0c.22.2,0,.5.16.71a3.53,3.53,0,0,0,.39,1.38,2,2,0,0,1,.29.72h0c.19.2.19.48.3.71s0,.2.1.27a3.54,3.54,0,0,1,.47,1A8.43,8.43,0,0,0,87.81,89a3.55,3.55,0,0,1,.59,1.12,4,4,0,0,0,.5,1.12,8.16,8.16,0,0,1,.76,1.54,4.58,4.58,0,0,0,.67,1.39,8.1,8.1,0,0,1,.85,1.59,16,16,0,0,0,2.34,3.58,1.62,1.62,0,0,1,.47.57c.13.19.23.43.53.4a5.8,5.8,0,0,1,1.13,1l.55.52a1.57,1.57,0,0,1,.94,1.49c0,.44-.19.76-.66.84h0a.51.51,0,0,1-.66,0h0a1.35,1.35,0,0,1-.73-.4h0a3.49,3.49,0,0,1-1.54-.67l-.27-.16c-.4-.27-.86-.43-1.27-.68l-1.26-.71c-.2-.2-.5-.22-.68-.46h0a5.59,5.59,0,0,1-.73-.38l-1.26-.85c-.2-.2-.48-.26-.68-.45h0c-.23-.07-.37-.29-.59-.39l-.16-.15c-.17-.14-.35-.29-.54-.42L86,98.32c-.31-.2-.52-.5-.83-.7l-.44-.41a25.64,25.64,0,0,1-2.08-2.09l-.26-.29c-.17-.24-.4-.44-.57-.69L81.72,94c-.13-.21-.34-.35-.4-.6h0c-.16-.12-.3-.27-.46-.38L79.63,91.2a3.7,3.7,0,0,1-.41-.72h0c-.22-.19-.27-.49-.45-.7l-.28-.54c-.36-.63-.67-1.29-1-1.94l-.13-.3a4.94,4.94,0,0,1-.4-1h0c-.27-.31-.24-.75-.46-1.08a4.72,4.72,0,0,1-.41-1.27c-.14-.31-.16-.66-.29-1a10.78,10.78,0,0,1-.55-2.24c-.17-.22,0-.5-.13-.72h0c-.22-.26,0-.59-.16-.86a.07.07,0,0,0,0-.11c-.15-.28,0-.61-.12-.9l0-.49a10.62,10.62,0,0,1,0-2.52l0-.48c.14-.29,0-.63.13-.91l0,0,0-.05c.13-.23,0-.52.13-.75h0c.16-.21,0-.5.15-.71a2.47,2.47,0,0,1,.26-1c.14-.31.15-.65.3-1a5.06,5.06,0,0,1,.4-1.25c.13-.22.16-.48.29-.7l.13-.31c.26-.55.52-1.11.82-1.64l.16-.29c.18-.2.24-.49.43-.69l.54-.84c.14-.19.3-.37.43-.56l.27-.3c.22-.29.51-.52.72-.82a8.13,8.13,0,0,1,1.24-1.1c.41-.28.7-.7,1.1-1l.29-.27c.25-.16.45-.39.68-.57l.44-.41c.31-.2.53-.5.83-.71l.15-.13c.19-.13.36-.28.53-.42l1.56-1.27a4.36,4.36,0,0,0,.55-.41l.15-.14c.18-.1.4-.11.55-.28l2.25-1.69a5,5,0,0,0,.54-.4l.71-.57a4.26,4.26,0,0,0,.54-.41l.16-.15a4.26,4.26,0,0,0,.54-.41l1.28-1a7.18,7.18,0,0,0,.72-.39h0a4.42,4.42,0,0,1,.53-.44l.71-.57a5.47,5.47,0,0,0,.54-.41l.16-.14c.19-.13.36-.28.54-.42l.16-.14C97.68,48.63,97.84,48.47,98,48.33Z"/><path class="cls-2" d="M150.81,163.05l.25.09a.63.63,0,0,1,.45.42h0a.93.93,0,0,1-.18,1.23l-.24.24a5.31,5.31,0,0,1-2.29,1.41A126,126,0,0,1,136,170.09c-2.22.5-4.45,1-6.69,1.37-3.95.72-7.91,1.35-11.89,1.86-3.34.43-6.68.85-10,1.09s-6.48.42-9.73.52c-3.91.12-7.81.07-11.71-.09-6.22-.27-12.41-.81-18.59-1.47a54.33,54.33,0,0,1-7.48-1.26,4.74,4.74,0,0,1-1.84-.81,1.7,1.7,0,0,1-.67-1.78,1.67,1.67,0,0,1,1.49-1.17,9.11,9.11,0,0,1,3,.2c3.48.58,7,.85,10.5,1.21,2.66.28,5.31.49,8,.67,2.3.15,4.59.29,6.89.37,3.3.13,6.6.1,9.9.06,2.9,0,5.8-.26,8.69-.45,3.55-.22,7.07-.63,10.59-1.08,3.82-.48,7.62-1.05,11.4-1.74,3-.54,5.91-1.15,8.84-1.85,3.11-.76,6.17-1.72,9.25-2.58a10.89,10.89,0,0,1,4.13-.38A1,1,0,0,1,150.81,163.05Z"/><path class="cls-2" d="M75.49,103.19l-.62.28A54.82,54.82,0,0,0,66.08,106a12.51,12.51,0,0,0-3.25,1.72c-.46.34-.46.45.05.71A17.86,17.86,0,0,0,68.13,110a75.39,75.39,0,0,0,9.13,1c3.52.19,7.06.36,10.59.24,3-.1,6.07-.14,9.11-.37,2.13-.16,4.26-.28,6.38-.46,2-.17,3.92-.41,5.88-.64s3.76-.49,5.64-.75,3.89-.65,5.83-1c2.37-.42,4.71-1,7.07-1.51a2.08,2.08,0,0,1,2.36,1.14,2.76,2.76,0,0,1,0,1.31,1.08,1.08,0,0,1-.17.43,2.74,2.74,0,0,1-.74.7,19.29,19.29,0,0,1-4.07,1.16,155.63,155.63,0,0,1-16.47,2.68q-6.19.69-12.41,1c-4.52.27-9,.41-13.58.33a92.85,92.85,0,0,1-16.13-1.45,22.48,22.48,0,0,1-5.94-1.94,4.56,4.56,0,0,1-2.47-2.79,4.09,4.09,0,0,1,1.72-4.32,20.84,20.84,0,0,1,5.47-2.86,85.09,85.09,0,0,1,8.26-2.46v0a2.07,2.07,0,0,1,2.47.7v0A2,2,0,0,1,75.49,103.19Z"/><path d="M115.44,95.23a13.86,13.86,0,0,1-2.55,5.07c-.12.17-.22.34-.33.51a1.7,1.7,0,0,1-.46.57l-.1.12a4,4,0,0,1-.89,1l-1.36,1.36a3.35,3.35,0,0,1-.84.75,3.06,3.06,0,0,0-.83.65c-.14.2-.4.19-.57.32l-2.5,1.66a3.65,3.65,0,0,1-2.16.8c-.79,0-1.17-.35-1.3-1.19.11-.23-.15-.53.12-.73a2.87,2.87,0,0,1,.43-.94l.83-1.26a5.75,5.75,0,0,0,.41-.56,11.6,11.6,0,0,0,2.12-4.15,11.71,11.71,0,0,0,0-2.44v0c-.23-.19,0-.49-.17-.68s-.1-.38-.13-.57a9.59,9.59,0,0,0-.43-1.24l-.42-.85a4.69,4.69,0,0,1-.39-.73h0c-.24-.16-.25-.48-.46-.66l-2.24-3.37a5.18,5.18,0,0,1-.41-.4l-.56-.86a6.3,6.3,0,0,1-.4-.72h0c-.28-.27-.34-.68-.59-1L99,85.2a7.29,7.29,0,0,1-.42-1h0c-.18-.31-.3-.65-.45-1-.16-.1-.08-.27-.13-.41a14.15,14.15,0,0,1-.68-2.12v0a15.56,15.56,0,0,1-.71-3.09v0A10.75,10.75,0,0,1,96.51,74v-.36c.13-.24,0-.52.12-.76A17.16,17.16,0,0,1,98,67.85c.31-.65.62-1.29,1-1.92a12.57,12.57,0,0,1,1.13-1.82c.13-.19.29-.36.42-.56l.14-.15a2.44,2.44,0,0,1,.56-.55l.28-.29c.25-.35.6-.61.85-1l1.52-1.53c.61-.45,1.06-1.09,1.66-1.55l.29-.27c.25-.16.45-.38.68-.56l.3-.28c.19-.13.36-.28.54-.42l.16-.15a8.68,8.68,0,0,1,.87-.52h0a1.35,1.35,0,0,1,.57-.43h0a1.35,1.35,0,0,1,.59-.44l.37-.31c.22-.09.35-.34.61-.39l2-1.42a7.18,7.18,0,0,1,.72-.39h0a3.16,3.16,0,0,1,.71-.42h0a1.74,1.74,0,0,1,.88-.43l.22-.17a5.45,5.45,0,0,1,.76-.39l.22-.17c.34-.19.67-.37,1-.53s.84-.4,1.24-.62a39.59,39.59,0,0,1,9.46-3.62,12.3,12.3,0,0,1,4.14-.37c.58.09,1.11.28,1.27.9A1.76,1.76,0,0,1,132.1,49h0a2.75,2.75,0,0,1-.72.43h0a2.3,2.3,0,0,1-.71.42h0a2.24,2.24,0,0,1-.73.43,3.22,3.22,0,0,0-1.34.86,5.22,5.22,0,0,1-.87.4,22.69,22.69,0,0,0-2.92,1.93,1.47,1.47,0,0,1-.6.44,16,16,0,0,0-2.48,1.77c-.1.25-.37.23-.56.33a6.23,6.23,0,0,0-1.53,1.22,2.89,2.89,0,0,1-.7.6.93.93,0,0,0-.42.36,3,3,0,0,1-.84.75A6.19,6.19,0,0,0,116.6,60a14.46,14.46,0,0,1-2.14,2,2.55,2.55,0,0,0-.65.7,3.49,3.49,0,0,1-.74.84,10.75,10.75,0,0,0-2.33,3.77c-.12.23-.11.51-.31.71a18.93,18.93,0,0,0-1.22,4.45c-.17.27.05.6-.15.86h0c-.19.41.08.87-.15,1.27v0a12.1,12.1,0,0,0,0,2.69h0c.12.61.14,1.23.29,1.83h0a8.48,8.48,0,0,1,.27,1,4.29,4.29,0,0,0,.51,1.51c.49.82.88,1.7,1.3,2.55a.84.84,0,0,0,.26.51,3.84,3.84,0,0,1,.58,1,4.48,4.48,0,0,0,1,1.5,1.51,1.51,0,0,1,.43.57h0a1.43,1.43,0,0,1,.44.59c0,.19.12.29.24.39s.37.5.59.73l.66,1.92c.3.28,0,.68.18,1h0a4.38,4.38,0,0,1,0,1.94v0C115.44,94.56,115.75,95,115.44,95.23Z"/><path class="cls-2" d="M70.88,122.46l-.2.14a5.57,5.57,0,0,1-1,.55h0a5.54,5.54,0,0,1-.85.58h0c-.44.39-.84.84-1.27,1.24a.77.77,0,0,0-.27.91h0c2.08,1.84,4.65,2.52,7.29,3.07a61.33,61.33,0,0,0,9.65,1.1c2.44.12,4.89.1,7.32,0,2.58-.06,5.15-.26,7.7-.55A86.75,86.75,0,0,0,112,127.19a40.27,40.27,0,0,0,7.53-2.71,2.29,2.29,0,0,1,2.6.18,2.11,2.11,0,0,1-.53,3.35,52.85,52.85,0,0,1-13.43,4.28A96.83,96.83,0,0,1,94,134.05a98.48,98.48,0,0,1-10.31,0A67.85,67.85,0,0,1,74,133a21.37,21.37,0,0,1-8.3-3.09,5.59,5.59,0,0,1-2.45-3.27,5,5,0,0,1,1.06-4.31,13,13,0,0,1,5.23-3.69,2,2,0,0,1,2.4.55,2,2,0,0,1,.09,2.45A2.11,2.11,0,0,1,70.88,122.46Z"/><path class="cls-2" d="M71.85,136.47l.36-.3a2.38,2.38,0,0,1,2.43-.16,1.75,1.75,0,0,1,1,1.67,1.88,1.88,0,0,1-1,1.82l-.35.29a7.65,7.65,0,0,0-1.29.83h0a7.12,7.12,0,0,0-1.49,1.7,1.5,1.5,0,0,0-.05,1.57v0a7.58,7.58,0,0,0,3.51,2,31.76,31.76,0,0,0,6.11,1.28,56,56,0,0,0,8.68.37c2.29-.07,4.58-.25,6.86-.51,2.92-.34,5.82-.79,8.71-1.4a71.51,71.51,0,0,0,8.84-2.46c1.18-.41,2.32-.94,3.49-1.39a2,2,0,0,1,2.46.7,1.83,1.83,0,0,1-.36,2.61,8.23,8.23,0,0,1-2.8,1.38,79.39,79.39,0,0,1-16.57,4.18,86,86,0,0,1-13.6,1,46.9,46.9,0,0,1-10.63-1.14,16.39,16.39,0,0,1-6.56-2.77,6.18,6.18,0,0,1-2.54-4.16A4.52,4.52,0,0,1,67.2,142a1.49,1.49,0,0,0,.24-.58,8.94,8.94,0,0,1,1.32-2.17v0a8.72,8.72,0,0,1,2-2h0A3.86,3.86,0,0,1,71.85,136.47Z"/><path class="cls-2" d="M146,125.81l-.23.23a10.62,10.62,0,0,1-1.7,1.58h0a6.17,6.17,0,0,1-1.55,1.13h0c-1.53.91-2.94,2-4.5,2.87a2,2,0,0,1-2.94-.9,2.52,2.52,0,0,1,1-2.62c1.34-1,2.71-1.86,4.1-2.75a13.61,13.61,0,0,0,2.95-2.4,1.11,1.11,0,0,1,.55-.42h0c.57-.56,1.14-1.11,1.69-1.7v0a11.76,11.76,0,0,1,1.27-1.55h0a3.82,3.82,0,0,1,.71-1v0a22.28,22.28,0,0,1,1.58-2.26,10.31,10.31,0,0,0,1.58-4.32,7,7,0,0,0-.79-3.4h0a4.08,4.08,0,0,1-.71-1h0a22.6,22.6,0,0,0-2.66-2.41,7.87,7.87,0,0,0-5-1,13.34,13.34,0,0,0-4.91,1.41,2,2,0,0,1-2.88-.74,2.26,2.26,0,0,1,1.17-3,17.42,17.42,0,0,1,8.68-1.81,8.18,8.18,0,0,1,2.59.48,11.78,11.78,0,0,1,5.6,3.82,14.53,14.53,0,0,1,2.48,4.07,10.2,10.2,0,0,1,0,6.37,22.68,22.68,0,0,1-3.57,6.41,14.78,14.78,0,0,1-2,2.42h0A25,25,0,0,1,146,125.81Z"/><path class="cls-3" d="M40.65,157.53a6.45,6.45,0,0,0,3.15,3.67,24.5,24.5,0,0,0,6.5,2.47A84.65,84.65,0,0,0,64,165.91a224.1,224.1,0,0,0,32.36.56,239.87,239.87,0,0,0,24.51-2.32,126.83,126.83,0,0,0,21-4.65c.82-.27,1.61-.6,2.41-.93a3.59,3.59,0,0,0,.78-.45,1.88,1.88,0,0,0,.7-2.34,1.84,1.84,0,0,0-2.16-1,17.89,17.89,0,0,0-2.25.73,90.44,90.44,0,0,1-15.88,4c-6.2,1.1-12.46,1.83-18.73,2.39a252.46,252.46,0,0,1-29.49.93A138.71,138.71,0,0,1,55,160.74a42.69,42.69,0,0,1-7.92-2.2A6.91,6.91,0,0,1,45,157.29c-.62-.54-.63-.85,0-1.45a7.92,7.92,0,0,1,2.13-1.55,47.91,47.91,0,0,1,10.71-3.73c1.52-.37,2.28-1.33,2-2.52s-1.42-1.68-2.93-1.3A67.69,67.69,0,0,0,47,150a16,16,0,0,0-4.24,2.54c-.12.1-.2.26-.4.25a6.72,6.72,0,0,1,2.57-2,48.79,48.79,0,0,1,10.55-3.9c.6-.15,1.2-.33,1.81-.48A2.16,2.16,0,0,1,60,148a2.08,2.08,0,0,1-1.45,2.55c-2,.6-4,1.09-5.94,1.72a26.27,26.27,0,0,0-6.64,3,3.61,3.61,0,0,0-.64.53c-.81.79-.78,1,.19,1.67a15.9,15.9,0,0,0,3.94,1.73,49.89,49.89,0,0,0,8.86,2q3.26.49,6.54.76c2.83.22,5.67.4,8.51.57,5.37.31,10.73.29,16.09.22,2.46,0,4.91-.15,7.37-.26,2.15-.1,4.3-.2,6.44-.42,2.78-.29,5.56-.48,8.34-.79s5.69-.65,8.53-1c2.51-.33,5-.78,7.51-1.25a89.29,89.29,0,0,0,13-3.33c.92-.32,1.84-.65,2.74-1a2.12,2.12,0,0,1,2.45.63,1.92,1.92,0,0,1-.19,2.75,9.34,9.34,0,0,1-3.75,1.74c-1.44.5-2.92.91-4.39,1.33-3,.86-6.1,1.52-9.19,2.08-2.22.41-4.44.87-6.68,1.17-1.58.21-3.16.45-4.74.64q-3.46.44-6.94.82c-1.15.13-2.3.21-3.45.3-2.47.19-4.93.38-7.4.55-.9.06-1.81.1-2.71.12-2.25,0-4.5.13-6.75.21-2.88.09-5.76.09-8.64.09-2.06,0-4.13-.11-6.19-.16-1.78,0-3.57-.11-5.34-.27-2.69-.24-5.38-.46-8.07-.77-2.89-.35-5.77-.74-8.61-1.35a32,32,0,0,1-8.44-2.74,8.37,8.37,0,0,1-3.9-4,.67.67,0,0,1,0-.2A.19.19,0,0,1,40.65,157.53Z"/><path class="cls-3" d="M150.81,163.05a8.62,8.62,0,0,0-4.75.17c-3.52,1-7,2.09-10.55,2.89-5.56,1.25-11.16,2.27-16.82,3-3.36.44-6.72.9-10.1,1.18a172.75,172.75,0,0,1-21.82.56c-6.52-.26-13-.84-19.48-1.5-2.15-.22-4.29-.58-6.44-.86a10.81,10.81,0,0,0-1.8-.1,1.58,1.58,0,0,0-1.56,1.17,1.53,1.53,0,0,0,.76,1.72,7,7,0,0,0,2.47.92,126.6,126.6,0,0,0,15.65,1.89c6,.51,12,.82,18,.77A194.29,194.29,0,0,0,119.11,173a179.6,179.6,0,0,0,20.34-3.86c3-.79,6.05-1.67,9-2.67a9.7,9.7,0,0,0,2.62-1.44,4.18,4.18,0,0,1-2.45,1.58,123,123,0,0,1-13.84,3.88q-5.12,1.1-10.27,2c-2.8.47-5.62.79-8.43,1.15-2.29.3-4.58.6-6.88.82-1.73.17-3.47.17-5.2.31-4.53.38-9.08.46-13.63.4q-3.54,0-7.08-.29c-2.06-.14-4.11-.25-6.16-.41s-4.36-.5-6.55-.66c-1.82-.13-3.63-.34-5.44-.59a28.3,28.3,0,0,1-6.56-1.39,1.83,1.83,0,0,1-1.33-2,1.66,1.66,0,0,1,1.26-1.47,6.76,6.76,0,0,1,2.69.05q3,.46,6,.81c2.07.24,4.15.34,6.2.65,1.24.19,2.49.22,3.74.31l8.23.56h.14c4,.18,8.09.19,12.13.12,2.59,0,5.18-.22,7.77-.41s5-.42,7.52-.7,4.7-.66,7.07-.93c3-.34,6.06-.94,9.09-1.45,1.82-.31,3.61-.8,5.42-1.16,4-.81,7.94-2.2,11.94-3.19a9.93,9.93,0,0,1,3.84-.24C150.5,162.74,150.73,162.78,150.81,163.05Z"/><path class="cls-3" d="M73.63,99.46c-2,.6-4,1.21-6,1.8A27.1,27.1,0,0,0,61.18,104a8.21,8.21,0,0,0-1.77,1.33c-2.25,2.35-1.28,5.13,1.36,6.45,3.48,1.75,7.27,2.27,11.06,2.69a152.18,152.18,0,0,0,26.49.22,197.17,197.17,0,0,0,21-2.43,90.23,90.23,0,0,0,9.06-2,8.93,8.93,0,0,0,1-.41,1.44,1.44,0,0,0,.54-.58l.13-.28a1.57,1.57,0,0,0,0-1.37,2,2,0,0,0-2.42-1c-1.85.37-3.68.81-5.53,1.18-5.8,1.14-11.64,1.94-17.53,2.52a195.37,195.37,0,0,1-22.43.91,83.46,83.46,0,0,1-15.61-1.48,13.73,13.73,0,0,1-3.62-1.24c-.67-.37-.68-.47,0-.93a15.15,15.15,0,0,1,4.25-2.09,60,60,0,0,1,6.22-1.82,6.49,6.49,0,0,1,1.58-.23,8.82,8.82,0,0,1-2.26.57,52.57,52.57,0,0,0-7.83,2.63c-.65.29-1.23.75-1.85,1.1-.42.24-.37.39,0,.6a14.52,14.52,0,0,0,3.75,1.25c1.83.38,3.68.66,5.54.86,3.27.37,6.55.5,9.84.59,1.81.06,3.62.11,5.42.08,2.78,0,5.57-.13,8.34-.27,2.47-.13,4.94-.29,7.4-.57,2.66-.29,5.32-.56,8-.92q6-.8,12-2c1.51-.3,3-.68,4.53-1a2.15,2.15,0,0,1,2.58,1.44,2,2,0,0,1-1.16,2.45,23.86,23.86,0,0,1-4.35,1.17c-3.08.69-6.2,1.24-9.33,1.7-2.35.35-4.7.68-7.06,1-1.63.2-3.27.3-4.9.44-2.16.19-4.33.39-6.49.55-.88.07-1.76.09-2.64.13-4.8.24-9.62.26-14.43.13a82,82,0,0,1-10.48-.91,34.23,34.23,0,0,1-7.21-1.7,8.51,8.51,0,0,1-3-1.63,3.85,3.85,0,0,1-.08-5.89,12.85,12.85,0,0,1,3.92-2.48A56.22,56.22,0,0,1,73,99.54,1.59,1.59,0,0,1,73.63,99.46Z"/><path class="cls-3" d="M70.88,122.46c.22-.14.44-.27.64-.42a1.93,1.93,0,0,0,.61-2.43,1.82,1.82,0,0,0-2.24-1c-2.37,1-4.63,2.2-6,4.55a4.51,4.51,0,0,0,.51,5.38,8.55,8.55,0,0,0,3.07,2.25c4.65,2.15,9.63,2.77,14.66,3.08A100.21,100.21,0,0,0,111,131.55,45.09,45.09,0,0,0,121.49,128a2.06,2.06,0,0,0,1.09-2.46,2,2,0,0,0-2.35-1.15,7.36,7.36,0,0,0-1.48.62,56,56,0,0,1-13.52,3.79,99.05,99.05,0,0,1-21.34,1.36,48.25,48.25,0,0,1-12.51-1.92,8.31,8.31,0,0,1-4.09-2.34.44.44,0,0,1,.38.12c1.93,1.69,4.31,2.28,6.72,2.79a36.67,36.67,0,0,0,4.17.71c1.28.13,2.57.31,3.86.39a79.14,79.14,0,0,0,9,.12c2.72-.12,5.44-.31,8.16-.63s5.35-.74,8-1.26a48.67,48.67,0,0,0,12.35-3.91,2.16,2.16,0,0,1,2.85,1,2.38,2.38,0,0,1-1.18,3A53.32,53.32,0,0,1,110,132c-2.59.57-5.21,1-7.84,1.37s-5,.56-7.52.72a88,88,0,0,1-9,.23,71.61,71.61,0,0,1-11.3-1.19,32.22,32.22,0,0,1-7.2-2.26A8,8,0,0,1,64,128.4a4.85,4.85,0,0,1,.24-6.15,13.64,13.64,0,0,1,5.29-3.72,2.12,2.12,0,0,1,2.81,1,2.18,2.18,0,0,1-.94,2.8A.93.93,0,0,1,70.88,122.46Z"/><path class="cls-3" d="M67.33,141.9c-.58,1.91.2,3.46,1.41,4.82a11.18,11.18,0,0,0,5.46,3.08c6.47,1.92,13.09,1.89,19.73,1.46a86,86,0,0,0,13.44-2,63.08,63.08,0,0,0,11.22-3.56,3.88,3.88,0,0,0,1.08-.62,1.89,1.89,0,0,0,.54-2.22,1.87,1.87,0,0,0-2-1.09,3.67,3.67,0,0,0-.93.26,68.48,68.48,0,0,1-16.91,4.61,79.86,79.86,0,0,1-14.81,1,35.19,35.19,0,0,1-11.51-1.92,4.8,4.8,0,0,1-2.58-1.8c2.42,2,5.39,2.57,8.36,3a49.71,49.71,0,0,0,10.12.55c2.56-.13,5.12-.31,7.67-.65,2.82-.37,5.62-.82,8.39-1.43a64.63,64.63,0,0,0,10.1-3.07l1.28-.53a2.09,2.09,0,0,1,3.08,1,2.15,2.15,0,0,1-1.27,2.85,43.53,43.53,0,0,1-6,2.27,83.55,83.55,0,0,1-10.11,2.43c-2.25.4-4.52.68-6.79,1a80.92,80.92,0,0,1-11.75.37,38.78,38.78,0,0,1-9.91-1.49,14.57,14.57,0,0,1-5.07-2.38A6,6,0,0,1,67,143.41a5.2,5.2,0,0,1,1.81-4.15,8.87,8.87,0,0,0-1.16,2.22C67.46,141.58,67.46,141.78,67.33,141.9Z"/><path class="cls-3" d="M148.56,123.44A41.58,41.58,0,0,0,153,117c1.67-3.16,2.2-6.47.53-9.77-2.49-4.92-6.88-7.84-12.69-7.16a17.29,17.29,0,0,0-6.18,1.81,2.14,2.14,0,0,0-1.06,2.59,1.92,1.92,0,0,0,2.46,1,2.28,2.28,0,0,0,.51-.21,12.7,12.7,0,0,1,6-1.42,6.74,6.74,0,0,1,4.89,1.86,6,6,0,0,1,1.6,1.7,7.57,7.57,0,0,1-1.29-1.12,6.58,6.58,0,0,0-4.58-2.21,17,17,0,0,0-4.2.42,12.49,12.49,0,0,0-2.56,1.07,2.23,2.23,0,0,1-3-.78,2.42,2.42,0,0,1,1.19-3.17,17.67,17.67,0,0,1,5.76-1.72,12.07,12.07,0,0,1,7.42,1.13,12.89,12.89,0,0,1,6.67,8.3,9.82,9.82,0,0,1-.69,6.45,30.57,30.57,0,0,1-4.52,7.07A1.49,1.49,0,0,1,148.56,123.44Z"/><path class="cls-3" d="M143.75,122.51a17.93,17.93,0,0,1-4.08,3.33c-1,.68-2.09,1.38-3.13,2.09a3.19,3.19,0,0,0-1.2,1.32,1.72,1.72,0,0,0,1.81,2.52,3.59,3.59,0,0,0,1.71-.73,27.34,27.34,0,0,1,3.71-2.31.61.61,0,0,1-.39.45,28.22,28.22,0,0,0-3.34,2.13,2.67,2.67,0,0,1-3.11.32,1.86,1.86,0,0,1-.75-2.12,3.16,3.16,0,0,1,1.19-1.58c1.83-1.22,3.68-2.41,5.48-3.67a12.81,12.81,0,0,0,1.51-1.44C143.33,122.66,143.46,122.45,143.75,122.51Z"/><path class="cls-3" d="M149.74,108.35a5.43,5.43,0,0,1,.76,4.26,10.32,10.32,0,0,1-2.35,4.66c-.28.33-.52.7-.78,1.06a3.54,3.54,0,0,1,.93-1.58c1.52-2,2.53-4.2,2-6.84C150.14,109.37,149.68,109,149.74,108.35Z"/><path class="cls-3" d="M74.66,139.5l.29-.3a2,2,0,0,0,.35-2.42,2.08,2.08,0,0,0-2.38-.84c-.24.07-.44.26-.71.23a2.15,2.15,0,0,1,2.89,3.18A.52.52,0,0,1,74.66,139.5Z"/><path class="cls-3" d="M101.55,106.84c.38,1.07.93,1.37,2,1a15.41,15.41,0,0,0,1.45-.62,2.84,2.84,0,0,1-2.75.79C101.76,107.82,101.37,107.49,101.55,106.84Z"/><path class="cls-3" d="M108.91,51.67l2.81-2.81c0,.24-.13.38-.28.53-.67.67-1.34,1.33-2,2C109.29,51.54,109.15,51.7,108.91,51.67Z"/><path class="cls-3" d="M102.25,44.42a11.62,11.62,0,0,1-2.67,2.52A19.91,19.91,0,0,1,102.25,44.42Z"/><path class="cls-3" d="M132.1,49c.23-.25.57-.37.75-.68.57-1,.34-1.51-.93-2.08.72,0,1.38.45,1.42,1A1.67,1.67,0,0,1,132.1,49Z"/><path class="cls-3" d="M71.49,143.88a1.15,1.15,0,0,1-.11-1.46A4.57,4.57,0,0,1,73,140.61c-.24.51-.75.78-1.08,1.23A2.11,2.11,0,0,0,71.49,143.88Z"/><path class="cls-3" d="M146,125.81a27.31,27.31,0,0,1,2.55-2.38c0,.21-.1.32-.24.45-.57.52-1.11,1.06-1.67,1.58C146.48,125.64,146.33,125.87,146,125.81Z"/><path class="cls-3" d="M42.06,153.06a7.56,7.56,0,0,0-1.42,2.65s-.09,0-.13,0-.15-.31-.1-.38C41,154.57,41.16,153.56,42.06,153.06Z"/><path class="cls-3" d="M75.49,103.19a2.12,2.12,0,0,0,.59-3,1.31,1.31,0,0,1,.52,1.49C76.47,102.3,76.37,103.05,75.49,103.19Z"/><path class="cls-3" d="M82.68,95.12a19.54,19.54,0,0,1,2.08,2.09A6.49,6.49,0,0,1,82.68,95.12Z"/><path class="cls-3" d="M114.46,62l2.14-2A5.49,5.49,0,0,1,114.46,62Z"/><path class="cls-3" d="M67.3,125.86a.55.55,0,0,1,0-.8,6.26,6.26,0,0,1,1.51-1.35c-.2.45-.63.7-.94,1.06S67.27,125.37,67.3,125.86Z"/><path class="cls-3" d="M88.77,67.86a12.55,12.55,0,0,1,2-2A7.42,7.42,0,0,1,88.77,67.86Z"/><path class="cls-3" d="M96.48,104.16c.79-.61.83-1.18.15-1.89-.15-.14-.29-.29-.43-.44a1.44,1.44,0,0,1,1,1.9C97,104.05,96.85,104.25,96.48,104.16Z"/><path class="cls-3" d="M96.51,74a29.23,29.23,0,0,0,.16,3.62A6.85,6.85,0,0,1,96.51,74Z"/><path class="cls-3" d="M70.71,137.31l-2,2A4.19,4.19,0,0,1,70.71,137.31Z"/><path class="cls-4" d="M40.51,155.7h.13v1.82h-.27a4.25,4.25,0,0,1,0-1.81A.25.25,0,0,0,40.51,155.7Z"/><path class="cls-3" d="M111.29,84.14a16.1,16.1,0,0,1-1.3-2.55A7,7,0,0,1,111.29,84.14Z"/><path class="cls-3" d="M96.67,77.63l.71,3.09A6.9,6.9,0,0,1,96.67,77.63Z"/><path class="cls-3" d="M76.09,100.18a2.66,2.66,0,0,0-2.47-.7A1.77,1.77,0,0,1,76.09,100.18Z"/><path class="cls-3" d="M145.42,120.82a6.51,6.51,0,0,1-1.69,1.7A6.66,6.66,0,0,1,145.42,120.82Z"/><path class="cls-3" d="M84.49,80.47a8.77,8.77,0,0,1,0-3.31Z"/><path class="cls-3" d="M144.09,127.62l1.7-1.58A3.72,3.72,0,0,1,144.09,127.62Z"/><path class="cls-3" d="M105.57,58.52a7,7,0,0,1-1.66,1.55A5.7,5.7,0,0,1,105.57,58.52Z"/><path class="cls-3" d="M99,65.93a9.88,9.88,0,0,1-1,1.92A4.38,4.38,0,0,1,99,65.93Z"/><path class="cls-3" d="M146.68,119.29a6.34,6.34,0,0,1-1.27,1.55A3.12,3.12,0,0,1,146.68,119.29Z"/><path class="cls-3" d="M77.52,87.31a9.26,9.26,0,0,1,1,1.94A4.15,4.15,0,0,1,77.52,87.31Z"/><path class="cls-3" d="M97.37,80.7a14.53,14.53,0,0,1,.68,2.12A4.19,4.19,0,0,1,97.37,80.7Z"/><path class="cls-3" d="M142.56,128.74a10.78,10.78,0,0,1,1.55-1.13A2.36,2.36,0,0,1,142.56,128.74Z"/><path class="cls-3" d="M108.93,77.25a6.59,6.59,0,0,1,0-2.69C108.92,75.46,108.92,76.36,108.93,77.25Z"/><path class="cls-3" d="M74.86,74.86v2.52A4.89,4.89,0,0,1,74.86,74.86Z"/><path class="cls-3" d="M77.5,66.07a6.8,6.8,0,0,1-.82,1.64A3.2,3.2,0,0,1,77.5,66.07Z"/><path class="cls-3" d="M105.47,96.76a4.7,4.7,0,0,1,0,2.44Z"/><path class="cls-3" d="M91.18,95.74a9.32,9.32,0,0,1-.85-1.59A2.53,2.53,0,0,1,91.18,95.74Z"/><path class="cls-3" d="M93.58,103.09l1.54.67A1.73,1.73,0,0,1,93.58,103.09Z"/><path class="cls-3" d="M89.66,92.76a8.16,8.16,0,0,1-.76-1.54A2.35,2.35,0,0,1,89.66,92.76Z"/><path class="cls-3" d="M151.33,164.78a1.38,1.38,0,0,0,.18-1.23C151.93,164,151.87,164.35,151.33,164.78Z"/><path class="cls-3" d="M95.65,101.31a6.81,6.81,0,0,1-1.13-1A1.79,1.79,0,0,1,95.65,101.31Z"/><path class="cls-3" d="M73,140.62c.37-.36.7-.79,1.29-.83A3.76,3.76,0,0,1,73,140.62Z"/><path class="cls-3" d="M115.62,94.27V92.33A2.51,2.51,0,0,1,115.62,94.27Z"/><path class="cls-3" d="M82.39,60.48a3.17,3.17,0,0,1-1.1,1A2.4,2.4,0,0,1,82.39,60.48Z"/><path class="cls-3" d="M109.21,79.07a4.75,4.75,0,0,1-.29-1.83A4.4,4.4,0,0,1,109.21,79.07Z"/><path class="cls-3" d="M92,102.25a2.86,2.86,0,0,1,1.27.68A2.51,2.51,0,0,1,92,102.25Z"/><path class="cls-3" d="M71.85,136.47a6.07,6.07,0,0,1-1.16.85A1.57,1.57,0,0,1,71.85,136.47Z"/><path class="cls-3" d="M40.39,155.72c0,.61,0,1.21,0,1.81A2.28,2.28,0,0,1,40.39,155.72Z"/><path class="cls-3" d="M111.11,102.49l.89-1A1.41,1.41,0,0,1,111.11,102.49Z"/><path class="cls-3" d="M102.39,61.6a2.53,2.53,0,0,1-.85,1C101.66,62.09,102,61.86,102.39,61.6Z"/><path class="cls-3" d="M107.38,52.93c.24-.37.65-.51,1-.76A1.28,1.28,0,0,1,107.38,52.93Z"/><path class="cls-3" d="M104.75,94.29a2,2,0,0,1,.43,1.24A2.6,2.6,0,0,1,104.75,94.29Z"/><path class="cls-3" d="M147.38,118.31a2.81,2.81,0,0,1-.71,1A1.23,1.23,0,0,1,147.38,118.31Z"/><path class="cls-3" d="M88.4,90.1,87.81,89A1.23,1.23,0,0,1,88.4,90.1Z"/><path class="cls-3" d="M111.37,13.72a2.23,2.23,0,0,0-.19,1.37C111,14.6,110.8,14.11,111.37,13.72Z"/><path class="cls-3" d="M149,107.37a2.42,2.42,0,0,1,.71,1A1.23,1.23,0,0,1,149,107.37Z"/><path class="cls-3" d="M69.66,123.15a2,2,0,0,1,1-.55A1.26,1.26,0,0,1,69.66,123.15Z"/><path class="cls-3" d="M108.41,56.32a1.57,1.57,0,0,1-.87.52A1,1,0,0,1,108.41,56.32Z"/><path class="cls-3" d="M108.91,104.6l.84-.75A1.06,1.06,0,0,1,108.91,104.6Z"/><path class="cls-3" d="M99.29,47.21a1.46,1.46,0,0,1-.83.71C98.68,47.62,98.88,47.29,99.29,47.21Z"/><path class="cls-3" d="M109.77,34.09a1.73,1.73,0,0,1-.55,1A1.46,1.46,0,0,1,109.77,34.09Z"/><path class="cls-3" d="M117.71,58.93a3.76,3.76,0,0,1,.84-.75A1.06,1.06,0,0,1,117.71,58.93Z"/><path class="cls-3" d="M84.63,58.52a1.56,1.56,0,0,1-.83.71C84,58.93,84.22,58.6,84.63,58.52Z"/><path class="cls-3" d="M99.3,85.75a2.42,2.42,0,0,1,.59,1C99.49,86.52,99.41,86.12,99.3,85.75Z"/><path class="cls-3" d="M117.08,50.86a2.18,2.18,0,0,1-1,.53A1.47,1.47,0,0,1,117.08,50.86Z"/><path class="cls-3" d="M80.05,62.57a1.79,1.79,0,0,1-.72.82A1.42,1.42,0,0,1,80.05,62.57Z"/><path class="cls-3" d="M113.07,63.53a3.49,3.49,0,0,1,.74-.84A1.06,1.06,0,0,1,113.07,63.53Z"/><path class="cls-3" d="M85.2,97.62a1.63,1.63,0,0,1,.83.7C85.61,98.25,85.42,97.92,85.2,97.62Z"/><path class="cls-3" d="M76.54,84.93A2.81,2.81,0,0,1,77,86C76.61,85.75,76.61,85.32,76.54,84.93Z"/><path class="cls-3" d="M112.13,85.67a4,4,0,0,1-.58-1A1.19,1.19,0,0,1,112.13,85.67Z"/><path class="cls-3" d="M108.92,74.58a2.62,2.62,0,0,1,.15-1.27C109,73.73,109.23,74.19,108.92,74.58Z"/><path class="cls-3" d="M110.92,31.72a1.75,1.75,0,0,1-.45,1A1.27,1.27,0,0,1,110.92,31.72Z"/><path class="cls-3" d="M68.83,123.72a1.93,1.93,0,0,1,.85-.58A1,1,0,0,1,68.83,123.72Z"/><path class="cls-3" d="M114.78,89.44c-.39-.08-.4-.48-.59-.73A.89.89,0,0,1,114.78,89.44Z"/><path class="cls-3" d="M112.44,23a2.92,2.92,0,0,1,0,1.41Z"/><path class="cls-3" d="M127.76,51.53a1.83,1.83,0,0,1,.87-.4A.87.87,0,0,1,127.76,51.53Z"/><path class="cls-3" d="M77,86a2.33,2.33,0,0,1,.4,1A1.16,1.16,0,0,1,77,86Z"/><path class="cls-3" d="M86.31,86.2a3.54,3.54,0,0,1-.47-1A1.08,1.08,0,0,1,86.31,86.2Z"/><path class="cls-3" d="M98.62,84.2a2.28,2.28,0,0,1,.42,1A1.23,1.23,0,0,1,98.62,84.2Z"/><path class="cls-3" d="M102.1,105.17a2.29,2.29,0,0,1-.43.94A1,1,0,0,1,102.1,105.17Z"/><path class="cls-3" d="M98.18,83.23a2.14,2.14,0,0,1,.45,1A1.26,1.26,0,0,1,98.18,83.23Z"/><path class="cls-3" d="M81.85,94.14a1.21,1.21,0,0,1,.57.69A1,1,0,0,1,81.85,94.14Z"/><path class="cls-3" d="M87.45,99.41c.26.1.56.13.68.45C87.84,99.8,87.56,99.74,87.45,99.41Z"/><path class="cls-3" d="M103.36,43.16a1.1,1.1,0,0,1-.57.68C102.84,43.5,103.1,43.33,103.36,43.16Z"/><path class="cls-3" d="M94.86,50.86a.88.88,0,0,1-.72.39A.8.8,0,0,1,94.86,50.86Z"/><path class="cls-3" d="M114.86,52.12l-.88.43A.79.79,0,0,1,114.86,52.12Z"/><path class="cls-3" d="M119,57.82a2.69,2.69,0,0,1,.7-.6A.79.79,0,0,1,119,57.82Z"/><path class="cls-3" d="M106.54,57.69a1.06,1.06,0,0,1-.68.56A1,1,0,0,1,106.54,57.69Z"/><path class="cls-3" d="M83.36,59.64a1.1,1.1,0,0,1-.68.57C82.85,60,83,59.69,83.36,59.64Z"/><path class="cls-3" d="M94.11,63.12c.16-.27.5-.25.71-.45A.6.6,0,0,1,94.11,63.12Z"/><path class="cls-3" d="M101.26,62.85c-.08.29-.36.38-.56.55A.59.59,0,0,1,101.26,62.85Z"/><path class="cls-3" d="M91.17,65.5a2.62,2.62,0,0,1,.71-.62A.78.78,0,0,1,91.17,65.5Z"/><path class="cls-3" d="M87.24,69.54c.16-.24.23-.56.6-.58C87.82,69.33,87.51,69.41,87.24,69.54Z"/><path class="cls-3" d="M75.86,70a1.57,1.57,0,0,1-.3,1A1.29,1.29,0,0,1,75.86,70Z"/><path class="cls-3" d="M104.07,42.32a1,1,0,0,1-.58.7C103.53,42.66,103.79,42.49,104.07,42.32Z"/><path class="cls-3" d="M84.48,77.1A2.32,2.32,0,0,1,84.62,76C84.59,76.34,84.78,76.75,84.48,77.1Z"/><path class="cls-3" d="M109.48,80.08a2.16,2.16,0,0,1-.27-1A1.24,1.24,0,0,1,109.48,80.08Z"/><path class="cls-3" d="M75.84,82.69a1.61,1.61,0,0,1,.29,1A1.29,1.29,0,0,1,75.84,82.69Z"/><path class="cls-3" d="M99.88,86.71a1.27,1.27,0,0,1,.4.72A.78.78,0,0,1,99.88,86.71Z"/><path class="cls-3" d="M107.72,37.46a1.15,1.15,0,0,1-.46.66C107.33,37.84,107.38,37.55,107.72,37.46Z"/><path class="cls-3" d="M95.12,103.76l.73.4A.59.59,0,0,1,95.12,103.76Z"/><path class="cls-3" d="M116,43.15l.45-.73C116.44,42.74,116.37,43,116,43.15Z"/><path class="cls-3" d="M115.84,51.56a1.39,1.39,0,0,1-.76.39A.84.84,0,0,1,115.84,51.56Z"/><path class="cls-3" d="M131.39,49.43a1.56,1.56,0,0,1,.72-.43A.71.71,0,0,1,131.39,49.43Z"/><path class="cls-3" d="M86.14,71.36a2,2,0,0,1,.43-.75A.69.69,0,0,1,86.14,71.36Z"/><path class="cls-3" d="M115.62,92.34l-.18-1C115.83,91.63,115.58,92,115.62,92.34Z"/><path class="cls-3" d="M114,52.54a1.66,1.66,0,0,1-.71.42A.71.71,0,0,1,114,52.54Z"/><path class="cls-3" d="M103.49,92.06a1.19,1.19,0,0,1,.46.66C103.61,92.62,103.56,92.34,103.49,92.06Z"/><path class="cls-3" d="M113.29,53a1.12,1.12,0,0,1-.72.39A.8.8,0,0,1,113.29,53Z"/><path class="cls-3" d="M84.62,81.45a1.77,1.77,0,0,1-.14-1C84.78,80.75,84.6,81.12,84.62,81.45Z"/><path class="cls-3" d="M108.51,36.32a1.16,1.16,0,0,1-.4.72A.84.84,0,0,1,108.51,36.32Z"/><path class="cls-3" d="M130.69,49.84a1.72,1.72,0,0,1,.71-.42A.67.67,0,0,1,130.69,49.84Z"/><path class="cls-3" d="M103.94,92.71a1.2,1.2,0,0,1,.39.73A.77.77,0,0,1,103.94,92.71Z"/><path class="cls-3" d="M130,50.27a1.75,1.75,0,0,1,.73-.43C130.58,50.18,130.29,50.25,130,50.27Z"/><path class="cls-3" d="M78.09,65.09a.94.94,0,0,1-.43.69A.81.81,0,0,1,78.09,65.09Z"/><path class="cls-3" d="M90.1,101.08a1.19,1.19,0,0,1,.68.46C90.5,101.47,90.21,101.42,90.1,101.08Z"/><path class="cls-3" d="M115.44,95.23a3.68,3.68,0,0,1,.18-1C115.58,94.58,115.82,95,115.44,95.23Z"/><path class="cls-3" d="M89.39,100.71a1.16,1.16,0,0,1,.73.38A.76.76,0,0,1,89.39,100.71Z"/><path class="cls-3" d="M78.77,89.79a1.18,1.18,0,0,1,.45.7C78.89,90.38,78.83,90.08,78.77,89.79Z"/><path class="cls-3" d="M79.22,90.48a1.28,1.28,0,0,1,.41.72A.74.74,0,0,1,79.22,90.48Z"/><path class="cls-3" d="M109.08,35.34a.94.94,0,0,1-.42.71A.85.85,0,0,1,109.08,35.34Z"/><path class="cls-3" d="M112.42,25.29a2.21,2.21,0,0,1-.12,1.05C112.33,26,112.17,25.61,112.42,25.29Z"/><path class="cls-3" d="M112.3,21.19a2.4,2.4,0,0,1,.12,1C112.17,21.9,112.33,21.54,112.3,21.19Z"/><path class="cls-3" d="M74.88,77.87a2.14,2.14,0,0,1,.12.9C74.75,78.5,74.9,78.17,74.88,77.87Z"/><path class="cls-3" d="M75,78.88a1.83,1.83,0,0,1,.16.86C74.87,79.5,75.05,79.17,75,78.88Z"/><path class="cls-3" d="M75,73.47a1.89,1.89,0,0,1-.13.91C74.91,74.07,74.74,73.74,75,73.47Z"/><path class="cls-3" d="M110.43,68a1.81,1.81,0,0,1,.31-.71C110.75,67.59,110.73,67.86,110.43,68Z"/><path class="cls-3" d="M85.45,84.25a1.82,1.82,0,0,1-.29-.72A.64.64,0,0,1,85.45,84.25Z"/><path class="cls-3" d="M85.74,85a1.45,1.45,0,0,1-.3-.71C85.74,84.39,85.76,84.66,85.74,85Z"/><path class="cls-3" d="M92.16,64.66l.56-.46A.54.54,0,0,1,92.16,64.66Z"/><path class="cls-3" d="M92.85,64.1a1.24,1.24,0,0,1,.57-.44A.55.55,0,0,1,92.85,64.1Z"/><path class="cls-3" d="M79.06,63.69a.73.73,0,0,1-.43.56A.68.68,0,0,1,79.06,63.69Z"/><path class="cls-3" d="M100.56,63.55a.69.69,0,0,1-.42.56A.67.67,0,0,1,100.56,63.55Z"/><path class="cls-3" d="M93.41,63.67a1.48,1.48,0,0,1,.57-.45A.52.52,0,0,1,93.41,63.67Z"/><path class="cls-3" d="M113.52,87.74a1.42,1.42,0,0,1-.43-.57A.52.52,0,0,1,113.52,87.74Z"/><path class="cls-3" d="M95,62.57l.56-.47A.55.55,0,0,1,95,62.57Z"/><path class="cls-3" d="M114,88.32a1.43,1.43,0,0,1-.44-.59A.54.54,0,0,1,114,88.32Z"/><path class="cls-3" d="M100.84,88.29c.14.13.41.13.41.4A.38.38,0,0,1,100.84,88.29Z"/><path class="cls-3" d="M97.87,60.19a1.69,1.69,0,0,1,.58-.45A.55.55,0,0,1,97.87,60.19Z"/><path class="cls-3" d="M98.82,59.48l.61-.44A.54.54,0,0,1,98.82,59.48Z"/><path class="cls-3" d="M85.31,58a.64.64,0,0,1-.53.42A.66.66,0,0,1,85.31,58Z"/><path class="cls-3" d="M80.87,93c.33-.09.35.2.46.38C81.11,93.36,80.89,93.31,80.87,93Z"/><path class="cls-3" d="M81.32,93.4c.17.17.38.32.4.6C81.48,93.87,81.27,93.72,81.32,93.4Z"/><path class="cls-3" d="M103.46,56.14l.57-.46A.55.55,0,0,1,103.46,56.14Z"/><path class="cls-3" d="M101.5,57.66a1.57,1.57,0,0,1,.58-.44A.52.52,0,0,1,101.5,57.66Z"/><path class="cls-3" d="M107.38,57a.66.66,0,0,1-.54.42A.67.67,0,0,1,107.38,57Z"/><path class="cls-3" d="M102.76,56.7l.57-.47A.54.54,0,0,1,102.76,56.7Z"/><path class="cls-3" d="M87.42,56.29a.66.66,0,0,1-.55.41A.69.69,0,0,1,87.42,56.29Z"/><path class="cls-3" d="M109,55.9a1.35,1.35,0,0,1-.57.43A.51.51,0,0,1,109,55.9Z"/><path class="cls-3" d="M86.17,98.46a.67.67,0,0,1,.54.42A.67.67,0,0,1,86.17,98.46Z"/><path class="cls-3" d="M86.87,99c.28,0,.42.21.59.39C87.15,99.45,87,99.25,86.87,99Z"/><path class="cls-3" d="M109.06,73.32a1.36,1.36,0,0,1,.15-.86C109.17,72.75,109.34,73.07,109.06,73.32Z"/><path class="cls-3" d="M76.55,68a.89.89,0,0,1-.29.7A.77.77,0,0,1,76.55,68Z"/><path class="cls-3" d="M109.55,55.47a1.43,1.43,0,0,1-.59.44A.53.53,0,0,1,109.55,55.47Z"/><path class="cls-3" d="M104.16,55.58l.57-.46A.55.55,0,0,1,104.16,55.58Z"/><path class="cls-3" d="M112.1,101.38l.46-.57A.55.55,0,0,1,112.1,101.38Z"/><path class="cls-3" d="M110.53,54.77c-.18.18-.34.38-.61.39C110.06,54.93,110.22,54.73,110.53,54.77Z"/><path class="cls-3" d="M104.86,55l.57-.45A.55.55,0,0,1,104.86,55Z"/><path class="cls-3" d="M105.56,54.47l.56-.47A.55.55,0,0,1,105.56,54.47Z"/><path class="cls-3" d="M90.91,53.78a.65.65,0,0,1-.54.4A.65.65,0,0,1,90.91,53.78Z"/><path class="cls-3" d="M103.34,103.35a.69.69,0,0,1-.41.56A.69.69,0,0,1,103.34,103.35Z"/><path class="cls-3" d="M124.24,53.9l.6-.44A.55.55,0,0,1,124.24,53.9Z"/><path class="cls-3" d="M92.16,52.8a.66.66,0,0,1-.54.41A.69.69,0,0,1,92.16,52.8Z"/><path class="cls-3" d="M92.86,52.24a.66.66,0,0,1-.54.41A.68.68,0,0,1,92.86,52.24Z"/><path class="cls-3" d="M95.38,50.43c-.09.25-.32.34-.53.44A.59.59,0,0,1,95.38,50.43Z"/><path class="cls-3" d="M95.79,61.87l.56-.46A.56.56,0,0,1,95.79,61.87Z"/><path class="cls-3" d="M96.63,49.45a.62.62,0,0,1-.54.41A.66.66,0,0,1,96.63,49.45Z"/><path class="cls-3" d="M97.33,48.89a.64.64,0,0,1-.54.42A.66.66,0,0,1,97.33,48.89Z"/><path class="cls-3" d="M98,48.33a.66.66,0,0,1-.53.42A.66.66,0,0,1,98,48.33Z"/><path class="cls-3" d="M111.94,48.59l.48-.56A.54.54,0,0,1,111.94,48.59Z"/><path class="cls-3" d="M113.08,47.2l.45-.6A.54.54,0,0,1,113.08,47.2Z"/><path class="cls-3" d="M114.48,45.24c.06-.24.34-.25.45-.43C114.94,45.12,114.78,45.26,114.48,45.24Z"/><path class="cls-3" d="M104.77,41.49a.69.69,0,0,1-.44.54A.63.63,0,0,1,104.77,41.49Z"/><path class="cls-3" d="M105.89,40.11a.94.94,0,0,1-.44.54A.57.57,0,0,1,105.89,40.11Z"/><path class="cls-3" d="M106.28,39.53a.9.9,0,0,1-.39.59C105.85,39.81,106.06,39.67,106.28,39.53Z"/><path class="cls-3" d="M107,38.56a.68.68,0,0,1-.41.56A.67.67,0,0,1,107,38.56Z"/><path class="cls-3" d="M108.12,37c0,.27-.32.26-.41.44C107.67,37.17,107.82,37,108.12,37Z"/><path class="cls-3" d="M106.4,53.77l.56-.47A.55.55,0,0,1,106.4,53.77Z"/><path class="cls-3" d="M85.43,72.88a1.36,1.36,0,0,1,.32-.7C85.75,72.47,85.74,72.74,85.43,72.88Z"/><path class="cls-3" d="M111.17,31a1.12,1.12,0,0,1-.26.73A.78.78,0,0,1,111.17,31Z"/><path class="cls-3" d="M112.29,26.55a1.56,1.56,0,0,1-.13.85C112.18,27.11,112,26.8,112.29,26.55Z"/><path class="cls-3" d="M85.16,73.59a1.72,1.72,0,0,1,.28-.72A.6.6,0,0,1,85.16,73.59Z"/><path class="cls-3" d="M87.92,68.84l.48-.56A.55.55,0,0,1,87.92,68.84Z"/><path class="cls-3" d="M94,99.89a1.44,1.44,0,0,1-.47-.57A.56.56,0,0,1,94,99.89Z"/><path class="cls-3" d="M84.62,76a1.2,1.2,0,0,1,.13-.72C84.75,75.5,84.89,75.78,84.62,76Z"/><path class="cls-3" d="M96.64,72.91a1.67,1.67,0,0,1-.12.76C96.54,73.41,96.41,73.13,96.64,72.91Z"/><path class="cls-3" d="M84.74,75.27a1.32,1.32,0,0,1,.17-.7C84.88,74.81,85,75.09,84.74,75.27Z"/><path class="cls-3" d="M75.15,72.63a1.38,1.38,0,0,1-.13.75C75,73.13,74.9,72.84,75.15,72.63Z"/><path class="cls-3" d="M84.77,82.15a1.2,1.2,0,0,1-.16-.71C84.89,81.62,84.74,81.9,84.77,82.15Z"/><path class="cls-3" d="M111.45,16.38c.2.19.16.44.16.67C111.36,16.88,111.48,16.61,111.45,16.38Z"/><path class="cls-3" d="M75.16,79.73a1.13,1.13,0,0,1,.13.72C75,80.25,75.17,80,75.16,79.73Z"/><path class="cls-3" d="M101,58l.56-.31C101.45,58,101.21,58,101,58Z"/><path class="cls-3" d="M95.83,104.15h.66A.38.38,0,0,1,95.83,104.15Z"/><path class="cls-3" d="M75.3,71.93a1.11,1.11,0,0,1-.15.71C75.17,72.4,75,72.13,75.3,71.93Z"/><path class="cls-3" d="M121.2,56l.56-.33C121.71,56,121.46,56,121.2,56Z"/><path class="cls-3" d="M112,28.09c0,.23,0,.47-.16.65C111.91,28.52,111.77,28.25,112,28.09Z"/><path class="cls-3" d="M112.16,27.39a1.09,1.09,0,0,1-.13.71C112,27.86,111.91,27.59,112.16,27.39Z"/><path class="cls-3" d="M105.31,96.1c.22.18.13.44.17.68C105.19,96.61,105.35,96.33,105.31,96.1Z"/><path class="cls-3" d="M107.51,105.57a.69.69,0,0,1,.57-.32C108,105.52,107.75,105.56,107.51,105.57Z"/><path class="cls-3" d="M111.18,15.08a1.1,1.1,0,0,1,.14.71C111.07,15.6,111.2,15.32,111.18,15.08Z"/><path class="cls-3" d="M112.16,20.18a1.24,1.24,0,0,1,.12.78C112.05,20.73,112.18,20.44,112.16,20.18Z"/><path class="cls-3" d="M112,19.23a1.37,1.37,0,0,1,.12.75C111.91,19.76,112,19.49,112,19.23Z"/><path class="cls-3" d="M151.51,163.56l-.45-.42C151.36,163.12,151.52,163.25,151.51,163.56Z"/><path class="cls-3" d="M111.89,18.4a1.29,1.29,0,0,1,.12.75C111.77,18.93,111.9,18.65,111.89,18.4Z"/><path class="cls-3" d="M88.12,55.87c-.12.23-.26.4-.55.28A.78.78,0,0,1,88.12,55.87Z"/><path class="cls-5" d="M114.39,19.42A22.91,22.91,0,0,1,117,26.56a20.23,20.23,0,0,1,.63,5.95A18.13,18.13,0,0,1,115,40.74a37.52,37.52,0,0,1-6.56,8.53,86.75,86.75,0,0,1-7,5.84c-2.26,1.63-4.53,3.25-6.73,5S90.15,63.72,88,65.69a17.74,17.74,0,0,0-4.25,19.76c1.16,2.64,2.47,5.21,3.79,7.77a49.18,49.18,0,0,0,3,5.4c.06.09.16.18,0,.34l-.51-.31a29.77,29.77,0,0,1-8.49-8.43,28,28,0,0,1-4.51-11.79A16.91,16.91,0,0,1,80.76,65a35.15,35.15,0,0,1,7.14-6.39c1.82-1.29,3.53-2.73,5.34-4,2.77-2,5.46-4.1,8.07-6.3a33.76,33.76,0,0,0,4-4.25,51.64,51.64,0,0,0,5.58-7.71,25.61,25.61,0,0,0,3.61-12,1.34,1.34,0,0,0,0-1.26l-.3-3.18C114.21,19.7,114,19.46,114.39,19.42Z"/><path class="cls-6" d="M114.53,23.05a.82.82,0,0,1,0,1.26Z"/><path class="cls-7" d="M114.39,19.42c-.18.11-.11.3-.16.45a1.19,1.19,0,0,1-.11-.81C114.35,19.12,114.37,19.27,114.39,19.42Z"/><path class="cls-8" d="M130,107.69a1,1,0,0,1,0,1.37Z"/><path class="cls-8" d="M129.87,109.34a.56.56,0,0,1-.54.58A1.87,1.87,0,0,1,129.87,109.34Z"/><path class="cls-5" d="M105.14,104.44c.13-.19.25-.4.38-.58,2.85-3.89,2.68-7.89.34-11.89-1.13-1.93-2.41-3.76-3.66-5.61A21.82,21.82,0,0,1,98.56,76a14.93,14.93,0,0,1,1.68-7.89A23.17,23.17,0,0,1,104.93,62,46.69,46.69,0,0,1,114,55a53.53,53.53,0,0,1,13.09-6.12c.4-.11.82-.19,1.23-.27a2.26,2.26,0,0,1,.39.07,54.11,54.11,0,0,0-4.85,3,66.44,66.44,0,0,0-8.91,7A24.3,24.3,0,0,0,109,66.17,22.58,22.58,0,0,0,106.7,77a12.41,12.41,0,0,0,1.07,4.8,36.54,36.54,0,0,0,4,7.07c2.22,2.73,2.12,5.62.6,8.54a17.06,17.06,0,0,1-5.16,5.86c-.63.47-1.28.92-1.92,1.39C105.16,104.65,105.12,104.58,105.14,104.44Z"/><path class="cls-9" d="M105.14,104.44l.17.17a.7.7,0,0,1-.52.29A.84.84,0,0,1,105.14,104.44Z"/><path class="cls-10" d="M67.33,141.9a.32.32,0,0,1,.27-.42C67.63,141.69,67.61,141.88,67.33,141.9Z"/></svg>