<svg id="레이어_1" data-name="레이어 1" xmlns="http://www.w3.org/2000/svg" viewBox="0 0 200 200"><defs><style>.cls-1{fill:#fff;}.cls-2{fill:#fefefe;}.cls-3{fill:#070707;}.cls-4{fill:#ecd189;}.cls-5{fill:#007ca5;}</style></defs><path class="cls-1" d="M178,200H0V25.37A4.58,4.58,0,0,1,.83,24.3Q12.58,12.57,24.3.83A4.58,4.58,0,0,1,25.37,0H200V178a5,5,0,0,1-.83,1.07Q189.09,189.08,179,199.17A5,5,0,0,1,178,200Z"/><path class="cls-2" d="M25.37,0a2.63,2.63,0,0,1-.64.73l-24,24a2.63,2.63,0,0,1-.73.64V0Z"/><path class="cls-2" d="M178,200a2.63,2.63,0,0,1,.64-.73q10.33-10.35,20.68-20.68A2.63,2.63,0,0,1,200,178V200Z"/><path class="cls-3" d="M80.69,102.45c1.75.12,3.5,0,5.25,0q7.31,0,14.62,0c5.46,0,10.91-.06,16.37-.15a10.35,10.35,0,0,0,3.28-.23,18.18,18.18,0,0,0,5.8-2,19.09,19.09,0,0,0,6.4-6.14,31.78,31.78,0,0,0,4.69-12.45c.69-4.07.44-8.15.37-12.23a3.59,3.59,0,0,0-.11-.57c-.2-1,.19-1.48,1.2-1.51,3.86-.08,7.73.1,11.6.12a12.36,12.36,0,0,1,4.65.93A15.33,15.33,0,0,1,161,73c4,5,6,10.79,7,17a57,57,0,0,1,.75,10.76c-.21,7.47-1.55,14.7-5,21.42-2.1,4.11-4.82,7.72-9.05,9.9a12.9,12.9,0,0,1-6.23,1.61c-3.48-.08-7,.08-10.43.11-4.09,0-8.18.13-12.28.19l-11.88.2c-4.09.07-8.19.16-12.28.18-1.32,0-1.35,0-1.34,1.38,0,1.53-.25,1.44,1.47,1.45,6.47,0,12.93.2,19.4.22,3.67,0,7.34.11,11,.17,1.21,0,1.51.29,1.48,1.51-.11,4,0,7.93-.12,11.9,0,1.58,0,3.17-.13,4.76a3.16,3.16,0,0,1-.94,2,26.49,26.49,0,0,1-8.76,6A50.22,50.22,0,0,1,107,167.8a60.18,60.18,0,0,1-15.8-.69c-6.22-1.1-12.15-3-17.36-6.71a21,21,0,0,1-4.19-3.9,4.15,4.15,0,0,1-.89-1.6h0c-.16-.09-.13-.27-.21-.4h0c-.15-.08-.11-.27-.22-.38h0c-.12-.1-.09-.28-.19-.4h0c-.13-.11-.11-.28-.18-.42v0c-.23-.14-.06-.43-.22-.59h0a14.64,14.64,0,0,1-.2-3.74c-.07-3.31,0-6.62.16-9.93,0-.32,0-.64,0-1-.07-5.81.23-11.62.22-17.43,0-1.65,0-3.3.07-5a12.49,12.49,0,0,1,2.78-7.23,16.18,16.18,0,0,1,6.89-5.39A10.1,10.1,0,0,1,80.69,102.45Z"/><path class="cls-3" d="M87.13,35l.05,0,0,0c.23-.22.56,0,.81-.18h0a56.52,56.52,0,0,1,8.61-1,66.48,66.48,0,0,1,7.86.14,33,33,0,0,1,5.15.68h0a14.88,14.88,0,0,1,2,.38l0,0,0,0c.27.15.61,0,.86.19h0A39.33,39.33,0,0,1,121.44,38a28.29,28.29,0,0,1,8,5,13,13,0,0,1,3.84,5.29v0c.28.2,0,.56.23.78h0a12,12,0,0,1,.17,3c-.06,1.56-.05,3.12-.06,4.67,0,4.16-.05,8.32-.13,12.48-.08,4-.11,7.93-.18,11.89,0,2,0,4-.19,6a11.61,11.61,0,0,1-2,5.11,15.25,15.25,0,0,1-9.39,6.95,4.43,4.43,0,0,1-1,.12c-9.91.25-19.82.18-29.74.2a81.6,81.6,0,0,0-9.64.2,16.61,16.61,0,0,0-10.65,5.72c-3.69,4.13-5.47,9.12-6.55,14.44A51.58,51.58,0,0,0,63.54,131c0,.76.14,1.54.21,2.31a1,1,0,0,1-1.09,1.29c-2.24,0-4.48.09-6.72-.06-1.53-.1-3.06-.11-4.58-.09a13.23,13.23,0,0,1-9.88-4.3,26.75,26.75,0,0,1-5.88-9.55,46.27,46.27,0,0,1-2.67-10.55,58.58,58.58,0,0,1-.4-11.15A48.92,48.92,0,0,1,35.88,83a28.21,28.21,0,0,1,7.48-11.24,14.21,14.21,0,0,1,8.79-3.69C53.62,68,55.08,68,56.54,68c6.26,0,12.53-.16,18.79-.27,4-.06,7.93.08,11.88-.16,4.13-.25,8.26-.08,12.38-.16,1.23,0,1.29-.1,1.29-1.37,0-1.62.12-1.44-1.48-1.47q-9.65-.17-19.3-.22c-3.6,0-7.2-.17-10.81-.17-1.41,0-1.67-.31-1.68-1.73,0-3.86.12-7.73.12-11.6,0-1.62.08-3.24.08-4.87,0-1.38,1-2.16,1.88-2.93a22.9,22.9,0,0,1,6.84-4.57h0a35.35,35.35,0,0,1,9.74-3.35h0C86.51,34.92,86.86,35.1,87.13,35Z"/><path class="cls-2" d="M76.53,38.49c-1.48.92-3.06,1.7-4.46,2.76a25.09,25.09,0,0,0-3.45,3.15,2.56,2.56,0,0,0-.68,1.76c0,1.43-.07,2.87,0,4.3.06,4.06-.15,8.12-.16,12.19a3.85,3.85,0,0,0,0,.48.86.86,0,0,0,.88.86A2.51,2.51,0,0,0,69,64l25.35.32,6,.05c.75,0,.75,0,.76.76,0,.48,0,1,0,1.46,0,.83,0,.85-.87.87-2.41.07-4.81.11-7.22.14-5.4.07-10.79.1-16.19.19-4,.07-8.06.16-12.09.19-3.67,0-7.34.19-11,.16-5.47,0-9.64,2.5-13,6.62A33.35,33.35,0,0,0,35,85.8a55.26,55.26,0,0,0-2.41,19,49,49,0,0,0,3.1,15.81,26.65,26.65,0,0,0,6,9.69,13,13,0,0,0,7.37,3.9,35.88,35.88,0,0,0,4.28.23c3,.05,6,.06,9,.08,1.1,0,1.36-.31,1.25-1.42a46.76,46.76,0,0,1,.57-14.36,30.08,30.08,0,0,1,4.86-11.61,18.22,18.22,0,0,1,7.53-6.3,15.61,15.61,0,0,1,6.14-1.37c10.33-.19,20.67-.17,31-.18,2,0,3.9-.07,5.85-.06a9.58,9.58,0,0,0,4.16-.89,16.27,16.27,0,0,0,8.63-9.1,8.09,8.09,0,0,0,.57-3c0-2.15.1-4.29.13-6.44.11-7.11.2-14.23.32-21.35.06-3.12.07-6.24,0-9.36a.39.39,0,0,1,.19.32,19.72,19.72,0,0,0,.19,2.42,17,17,0,0,1-.19,2.11c0,4.82.16,9.63,0,14.44-.16,4.25,0,8.51-.2,12.75-.09,2-.08,4-.16,5.93a7.25,7.25,0,0,1-.74,2.7,20.18,20.18,0,0,1-2.91,4.69,15.42,15.42,0,0,1-7,4.66,5.77,5.77,0,0,1-2.1.32c-3.8-.14-7.59.24-11.39.21q-12.09-.09-24.19,0a18.78,18.78,0,0,0-7.15,1.09,17.39,17.39,0,0,0-5.31,3.16,25.25,25.25,0,0,0-3.33,3.76,23.32,23.32,0,0,0-3,5.54,38.66,38.66,0,0,0-2.07,7.67,24.24,24.24,0,0,0-.47,4.82c0,1.23,0,2.47,0,3.7a24.05,24.05,0,0,0,.35,4.15,1.33,1.33,0,0,1-1.38,1.39c-1.5,0-3,.1-4.49,0-2.72-.19-5.45-.07-8.17-.21a11.69,11.69,0,0,1-5.46-1.84,18.91,18.91,0,0,1-5.62-5.54,33.14,33.14,0,0,1-4.36-9.4,49.42,49.42,0,0,1-1.4-5.64c-.15-.79-.2-1.6-.3-2.4-.15-1.15-.28-2.31-.33-3.46-.1-2.63-.12-5.27,0-7.9,0-1,.22-2,.28-3a40.79,40.79,0,0,1,1.89-9.28A58,58,0,0,1,37,80a16.59,16.59,0,0,1,2-3.35c.33-.44.6-.92.91-1.37a20.91,20.91,0,0,1,5.34-5.19,13.22,13.22,0,0,1,5.21-2,20.46,20.46,0,0,1,3.49-.17c2.18,0,4.36.07,6.53,0,4.91-.21,9.81,0,14.71-.23,4-.18,7.92.07,11.87-.18,4.12-.26,8.24-.07,12.36-.17a3.94,3.94,0,0,0,.68-.08.69.69,0,0,0,.63-.8c0-2,.18-1.62-1.57-1.65-.91,0-1.83.06-2.73,0-5.39-.41-10.79,0-16.17-.23-3.64-.18-7.27-.06-10.9-.14a3.39,3.39,0,0,1-1.14-.21,1.06,1.06,0,0,1-.73-1.28,7.89,7.89,0,0,0,.06-1c0-2.38.06-4.75,0-7.12-.09-3.06.32-6.09.21-9.15a1.83,1.83,0,0,1,.44-1.15A17.25,17.25,0,0,1,71.9,41a29.33,29.33,0,0,1,2.91-1.93A3.44,3.44,0,0,1,76.53,38.49Z"/><path class="cls-2" d="M68.71,154.9a19.13,19.13,0,0,0,5.79,5.82,36.43,36.43,0,0,0,10,4.68,57.47,57.47,0,0,0,12.34,2.27,64.66,64.66,0,0,0,8.58.09,52.45,52.45,0,0,0,15.61-3.12,30.85,30.85,0,0,0,9.3-5.24l.22-.19c2.57-2.23,2.59-2.28,2.62-5.65q.08-6.63.19-13.26V139c0-1.12-.19-1.31-1.28-1.33l-5-.08c-2.43,0-4.87-.08-7.31-.1l-18.92-.19c-.83,0-.83,0-.84-.88,0-.32,0-.65,0-1,0-1.25-.28-1.23,1.28-1.25l23-.34c5.53-.08,11.05-.15,16.58-.27,2.34-.05,4.68-.1,7-.11a15.2,15.2,0,0,0,10.79-4.72,26.11,26.11,0,0,0,5.16-7.41,47,47,0,0,0,4.3-15.61,57,57,0,0,0-.62-17,40.23,40.23,0,0,0-4.25-12.09,22,22,0,0,0-4.84-6.07,12.76,12.76,0,0,0-8.07-3.23c-3.93-.11-7.86-.13-11.8-.16-1,0-1.24.37-1.13,1.35a43.54,43.54,0,0,1-1.65,18.5,25.41,25.41,0,0,1-5.92,10.09,16.64,16.64,0,0,1-8.65,4.8,2.7,2.7,0,0,1-1.06.1,8.51,8.51,0,0,1,2.2-.63,18.45,18.45,0,0,0,4-1.82,17.53,17.53,0,0,0,5.1-4.72,30.11,30.11,0,0,0,5.33-12.48,25.23,25.23,0,0,0,.57-5.68c0-2.15,0-4.29,0-6.44a7,7,0,0,0-.14-1.64c-.25-1.07.33-1.73,1.45-1.73,1.88,0,3.78-.13,5.65,0,2.3.19,4.61.05,6.9.18a11.91,11.91,0,0,1,6.52,2.52,20.72,20.72,0,0,1,5.78,6.75,35.78,35.78,0,0,1,2.85,6.38,47.4,47.4,0,0,1,1.65,7c.26,1.66.41,3.33.6,5a53.2,53.2,0,0,1,.11,8.08,48.84,48.84,0,0,1-.86,7,47.51,47.51,0,0,1-1.77,7,37.73,37.73,0,0,1-3.07,7,23.09,23.09,0,0,1-5,6.2,16,16,0,0,1-7.49,3.7,11.31,11.31,0,0,1-1.92.16c-3.09,0-6.19-.11-9.27,0-4.55.22-9.1,0-13.63.22-3.64.18-7.28,0-10.9.17-4.42.25-8.83.11-13.24.17a2.72,2.72,0,0,0-.58.05c-.65.14-.74.24-.74.91,0,1.84-.18,1.55,1.54,1.57.91,0,1.82-.05,2.73,0,5.48.39,11,0,16.45.24,3.64.17,7.27,0,10.91.15a3.87,3.87,0,0,1,.68,0,1.12,1.12,0,0,1,1,1.19c0,4.13.1,8.26,0,12.38-.05,1.62-.11,3.24-.14,4.86a2.62,2.62,0,0,1-.78,1.73,24.68,24.68,0,0,1-6.32,4.95,37.39,37.39,0,0,1-8.88,3.61,53,53,0,0,1-6.25,1.32c-1.86.24-3.72.44-5.58.62a44.32,44.32,0,0,1-6.41.1c-1.77-.09-3.54-.27-5.3-.47-2.68-.31-5.27-1-7.89-1.5a23.37,23.37,0,0,1-4-1.32,35.36,35.36,0,0,1-8.19-4.24,20.39,20.39,0,0,1-4.59-4.3A1.93,1.93,0,0,1,68.71,154.9Z"/><path class="cls-2" d="M80.69,102.45a14.77,14.77,0,0,0-8.07,4.2,16.43,16.43,0,0,0-3.7,5.43,9.83,9.83,0,0,0-.76,3.7c0,2-.07,4-.1,6q-.18,11.16-.36,22.3c0,2.47,0,4.93-.06,7.4,0,.42.06.84.09,1.26a4.12,4.12,0,0,1-.4-2c.07-.87,0-1.73,0-2.59.24-5.22,0-10.45.24-15.66.16-3.86,0-7.72.18-11.57.13-2.14.08-4.27.18-6.41a9,9,0,0,1,1-3.21,16.32,16.32,0,0,1,10-8.74A8.51,8.51,0,0,1,80.69,102.45Z"/><path class="cls-2" d="M133.24,48.23A18.67,18.67,0,0,0,126.66,41,39.76,39.76,0,0,0,114,35.54a4.82,4.82,0,0,1-1.39-.4,6.9,6.9,0,0,1,2.85.47A41.54,41.54,0,0,1,121.78,38a27.07,27.07,0,0,1,4.77,2.57,26.76,26.76,0,0,1,4,3.31,26.76,26.76,0,0,1,2.47,3.35A1.39,1.39,0,0,1,133.24,48.23Z"/><path class="cls-2" d="M109.64,34.57a13.85,13.85,0,0,1-2.31-.26,63.67,63.67,0,0,0-18.44.39c-.29,0-.58,0-.87.07.33-.39.84-.34,1.25-.39,2-.2,4-.53,6-.68,1.82-.13,3.62-.09,5.44-.13a46.85,46.85,0,0,1,5,.34c1.16.1,2.3.31,3.45.43C109.34,34.36,109.54,34.36,109.64,34.57Z"/><path class="cls-2" d="M86.26,35.14c-1.22.35-2.44.67-3.64,1a43.84,43.84,0,0,0-5.46,2.08,1.38,1.38,0,0,1-.64.23c.13-.36.49-.41.76-.54a36.87,36.87,0,0,1,7.92-2.78A4.69,4.69,0,0,1,86.26,35.14Z"/><path class="cls-2" d="M111.61,34.94a5.79,5.79,0,0,1-2-.38A3,3,0,0,1,111.61,34.94Z"/><path class="cls-2" d="M88,34.76a1,1,0,0,1-.81.18C87.43,34.64,87.74,34.75,88,34.76Z"/><path class="cls-2" d="M87.13,35a1.17,1.17,0,0,1-.87.19C86.49,34.8,86.83,35,87.13,35Z"/><path class="cls-2" d="M112.57,35.14a1.14,1.14,0,0,1-.86-.19C112,35,112.35,34.81,112.57,35.14Z"/><path class="cls-2" d="M133.46,49a1.28,1.28,0,0,1-.23-.78C133.58,48.39,133.43,48.71,133.46,49Z"/><path class="cls-2" d="M67.72,152.76a.77.77,0,0,1,.22.59C67.66,153.23,67.72,153,67.72,152.76Z"/><path class="cls-2" d="M67.93,153.33a.41.41,0,0,1,.18.42A.36.36,0,0,1,67.93,153.33Z"/><path class="cls-2" d="M68.11,153.74a.42.42,0,0,1,.19.4A.36.36,0,0,1,68.11,153.74Z"/><path class="cls-2" d="M68.3,154.14a.41.41,0,0,1,.22.38C68.33,154.45,68.3,154.31,68.3,154.14Z"/><path class="cls-2" d="M68.51,154.51a.39.39,0,0,1,.21.4C68.52,154.84,68.5,154.69,68.51,154.51Z"/><path class="cls-4" d="M124.46,132.64l-20.58.26c-1.36,0-2.73,0-4.09.1-1,0-1,.2-1,1.12s0,1.95,0,2.93c0,1.14.27,1.44,1.42,1.47,1.75.06,3.51.1,5.27.12q9.1.12,18.23.2c2.51,0,5,0,7.51.06.8,0,.82,0,.81.81q-.11,7.22-.22,14.43a2.54,2.54,0,0,0,0,.39,3.08,3.08,0,0,1-1.22,2.89,26.18,26.18,0,0,1-6.9,4.7,45.3,45.3,0,0,1-12.56,3.77,58,58,0,0,1-10.69.74c-7.84-.24-15.45-1.59-22.49-5.26a21.75,21.75,0,0,1-7.4-5.93c-.24-.31-.46-.63-.68-.95a5.72,5.72,0,0,1-1.07-3.56c.17-7.21.31-14.43.37-21.65,0-4.45.21-8.9.19-13.36a8,8,0,0,1,.56-3,14.67,14.67,0,0,1,9.14-8.74,6.8,6.8,0,0,1,2.2-.35c5.17,0,10.34,0,15.51-.08,5.78-.09,11.57,0,17.36-.06,1.91,0,3.83,0,5.75-.19a17.35,17.35,0,0,0,9.65-4.26,25.28,25.28,0,0,0,7.17-10.87A40.24,40.24,0,0,0,139,77a50.54,50.54,0,0,0-.19-7.88c-.06-.59,0-.67.63-.66,2.64,0,5.27.08,7.9.13.75,0,1.5.06,2.24,0a11.68,11.68,0,0,1,8.84,3.65,23.44,23.44,0,0,1,4.92,7.21,44.64,44.64,0,0,1,3.78,15.25A56,56,0,0,1,166,111.21,40.11,40.11,0,0,1,161.59,123a21.69,21.69,0,0,1-5.11,6.09,13.57,13.57,0,0,1-8.52,3.14c-6.44.07-12.87.18-19.31.27-1.4,0-2.8,0-4.19,0Z"/><path class="cls-5" d="M103.24,98c-5.39,0-10.79-.06-16.19,0a54.45,54.45,0,0,0-6.51.29,17.34,17.34,0,0,0-9.35,4.48,25,25,0,0,0-6.61,10,40.13,40.13,0,0,0-2.42,11.79,54.36,54.36,0,0,0,.18,8.07c0,.5-.16.63-.6.63-.85,0-1.7,0-2.54,0-2.73-.2-5.46-.12-8.19-.15a11.33,11.33,0,0,1-6.93-2.48,22.18,22.18,0,0,1-6.58-9,45.64,45.64,0,0,1-3.38-13.26,49.86,49.86,0,0,1-.29-8.37,49.23,49.23,0,0,1,4.38-18.75,26.46,26.46,0,0,1,4.62-7,14.49,14.49,0,0,1,8.67-4.67,35.34,35.34,0,0,1,4.37-.22c3.06,0,6.12,0,9.17-.08,4.26-.15,8.52,0,12.77-.2,3.87-.16,7.74,0,11.6-.17s7.74-.1,11.61-.18a3.33,3.33,0,0,0,.77-.05c.39-.08.66-.32.58-.76a22.69,22.69,0,0,1-.1-3.4c0-.93-.28-1.21-1.21-1.28s-1.88-.12-2.82-.13c-3.38,0-6.76,0-10.15-.07-6.07-.08-12.15-.23-18.23-.19-.8,0-.82,0-.82-.81,0-3.42,0-6.83.1-10.24,0-1.79.09-3.58.11-5.36a2.09,2.09,0,0,1,.61-1.47A23.84,23.84,0,0,1,76.39,40,44,44,0,0,1,89,35.93,53.67,53.67,0,0,1,100.28,35a55.43,55.43,0,0,1,19.14,3.6,28.84,28.84,0,0,1,9.36,5.69,15.93,15.93,0,0,1,3.11,4.09,3.66,3.66,0,0,1,.38,1.79c-.06,5.3-.15,10.59-.24,15.89C132,69.7,132,73.34,131.87,77c-.08,3.21-.15,6.43-.18,9.65a6.79,6.79,0,0,1-.76,2.7,14.82,14.82,0,0,1-8.45,8.06,7.92,7.92,0,0,1-2.85.53c-5.46,0-10.92,0-16.39,0Z"/></svg>